<svg width="600" height="600" viewBox="0 0 600 600" fill="none" xmlns="http://www.w3.org/2000/svg">
<rect width="600" height="600" rx="70" fill="#18181B"/>
<path d="M164.372 442.4C159.039 442.4 152.639 428.133 145.172 399.6C137.972 371.067 131.439 339.333 125.572 304.4C119.972 269.733 117.172 247.867 117.172 238.8C117.172 211.867 126.239 192.267 144.372 180C162.505 167.467 185.839 161.2 214.372 161.2C229.572 161.2 243.972 164.4 257.572 170.8C271.172 176.933 282.105 185.867 290.372 197.6C298.639 209.067 302.772 222.4 302.772 237.6C302.772 256.533 296.105 269.867 282.772 277.6C269.705 285.333 253.172 289.2 233.172 289.2C212.372 289.2 194.639 285.733 179.972 278.8C165.572 271.6 158.372 261.867 158.372 249.6L158.772 245.6C160.639 243.467 162.639 242.4 164.772 242.4C166.639 242.4 168.639 243.2 170.772 244.8C173.172 246.133 175.705 247.733 178.372 249.6C186.639 255.733 194.772 260.667 202.772 264.4C211.039 268.133 221.305 270 233.572 270C250.372 270 262.239 267.067 269.172 261.2C276.372 255.067 279.972 245.467 279.972 232.4C279.972 222.8 276.772 214.267 270.372 206.8C263.972 199.333 255.705 193.6 245.572 189.6C235.439 185.6 225.039 183.6 214.372 183.6C189.572 183.6 170.905 188.933 158.372 199.6C145.839 210 140.239 227.467 141.572 252C143.972 293.6 147.705 328.533 152.772 356.8C158.105 385.067 167.305 409.067 180.372 428.8L180.772 429.6C180.772 430.133 180.105 430.667 178.772 431.2C177.705 432 176.905 432.667 176.372 433.2C173.172 438.267 169.172 441.333 164.372 442.4ZM401.95 495.2C379.55 495.2 360.75 488.8 345.55 476C330.617 463.467 321.683 442.267 318.75 412.4C318.483 407.867 319.15 404.4 320.75 402C322.617 399.6 325.017 398.4 327.95 398.4C331.15 398.4 333.95 399.6 336.35 402C338.75 404.667 339.817 408.133 339.55 412.4C339.55 430 345.55 443.867 357.55 454C369.817 464.4 385.417 469.6 404.35 469.6C415.283 469.6 424.883 465.6 433.15 457.6C441.683 449.6 448.217 438.4 452.75 424C457.283 409.867 459.55 393.6 459.55 375.2C459.55 342.933 459.95 311.6 460.75 281.2L461.15 260.8C450.75 271.733 441.283 279.733 432.75 284.8C424.483 289.867 414.483 292.4 402.75 292.4C382.217 292.4 367.017 286.933 357.15 276C347.55 264.8 342.75 247.733 342.75 224.8C342.75 211.733 346.217 198.133 353.15 184C360.35 169.6 370.083 157.6 382.35 148C394.883 138.4 409.017 133.6 424.75 133.6C430.083 133.6 435.017 134.133 439.55 135.2C456.617 138.933 468.083 154.8 473.95 182.8C479.817 210.8 482.75 247.067 482.75 291.6C482.75 303.867 482.483 320.133 481.95 340.4L481.55 378.4C481.55 393.6 479.15 410.133 474.35 428C469.55 446.133 461.15 461.867 449.15 475.2C437.15 488.533 421.417 495.2 401.95 495.2ZM396.75 266C416.483 266 431.417 261.333 441.55 252C451.683 242.4 456.75 228.4 456.75 210C456.75 207.6 456.483 203.467 455.95 197.6C454.617 185.333 451.417 175.733 446.35 168.8C441.55 161.6 433.95 158 423.55 158C412.617 158 402.617 161.867 393.55 169.6C384.483 177.333 377.417 186.933 372.35 198.4C367.283 209.6 364.75 220.133 364.75 230C364.75 239.867 367.683 248.4 373.55 255.6C379.417 262.533 387.15 266 396.75 266Z" fill="#8681CF"/>
</svg>
